# xmcd CD database file
#
# Track frame offsets:
#	150
#	68839
#	112418
#
# Disc length: 3163 seconds
#
# Revision: 0
# Processed by: cddbd v1.5.2PL0 Copyright (c) Steve Scherf et al.
# Submitted via: CDex 1.70beta2
#
DISCID=290c5903
DTITLE=Keith Jarrett - Arbour Zena
DYEAR=1900
DGENRE=Jazz
TTITLE0=Runes
TTITLE1=Solara
TTITLE2=Mirros
EXTD=
EXTT0=
EXTT1=
EXTT2=
PLAYORDER=
